<svg width="304" height="283" viewBox="0 0 304 283" fill="none" xmlns="http://www.w3.org/2000/svg">
<path d="M152 233.22C208.812 233.22 254.867 190.346 254.867 137.459C254.867 84.5712 208.812 41.6973 152 41.6973C95.1878 41.6973 49.1324 84.5712 49.1324 137.459C49.1324 190.346 95.1878 233.22 152 233.22Z" fill="#62C16C"/>
<path d="M115.477 141.5L138.968 163.368L202.449 104.272" stroke="white" stroke-width="38.923" stroke-linecap="square"/>
<path d="M152 229.581C208.812 229.581 254.867 186.707 254.867 133.819C254.867 80.9318 208.812 38.0579 152 38.0579C95.1878 38.0579 49.1324 80.9318 49.1324 133.819C49.1324 186.707 95.1878 229.581 152 229.581Z" fill="#B9212F"/>
<path fill-rule="evenodd" clip-rule="evenodd" d="M215.281 104.268L190.179 99.8754L135.063 151.186L119.939 137.106L94.8376 141.499V144.895L103.205 152.685L135.062 182.341L206.915 115.451L215.282 107.662L215.281 104.268Z" fill="#E9E9E9"/>
<path fill-rule="evenodd" clip-rule="evenodd" d="M198.548 88.6922L190.181 96.4815L135.065 147.792L119.941 133.712L111.573 125.923L94.8395 141.501L103.207 149.29L135.064 178.947L206.917 112.057L215.284 104.267L198.55 88.6893L198.548 88.6922Z" fill="white"/>
</svg>
